<mxfile host="Electron" modified="2024-08-22T15:11:22.584Z" agent="Mozilla/5.0 (X11; Linux x86_64) AppleWebKit/537.36 (KHTML, like Gecko) draw.io/24.6.4 Chrome/124.0.6367.207 Electron/30.0.6 Safari/537.36" etag="-NsI8TwS_-AMP2Xkr0FZ" version="24.6.4" type="device">
  <diagram name="Page-1" id="7inHc9Q6Ccn756RbUHnm">
    <mxGraphModel dx="1434" dy="835" grid="1" gridSize="10" guides="1" tooltips="1" connect="1" arrows="1" fold="1" page="1" pageScale="1" pageWidth="850" pageHeight="1100" math="0" shadow="0">
      <root>
        <mxCell id="0" />
        <mxCell id="1" parent="0" />
        <mxCell id="wIZ43N2knN1_QpdRfwYL-1" value="ska_frontend" style="shape=umlFrame;whiteSpace=wrap;html=1;pointerEvents=0;width=80;height=30;" parent="1" vertex="1">
          <mxGeometry x="40" y="180" width="720" height="370" as="geometry" />
        </mxCell>
        <mxCell id="_1hHCrO5CZwxLzsTIWwX-7" value="ska_backend" style="shape=module;align=left;spacingLeft=20;align=center;verticalAlign=top;whiteSpace=wrap;html=1;" parent="1" vertex="1">
          <mxGeometry x="630" y="250" width="110" height="50" as="geometry" />
        </mxCell>
        <mxCell id="_1hHCrO5CZwxLzsTIWwX-8" value="Keycloak" style="shape=module;align=left;spacingLeft=20;align=center;verticalAlign=top;whiteSpace=wrap;html=1;" parent="1" vertex="1">
          <mxGeometry x="630" y="355" width="110" height="50" as="geometry" />
        </mxCell>
        <mxCell id="wpWViin_Y6ipoAt1LUYJ-2" value="page_home" style="ellipse;whiteSpace=wrap;html=1;" parent="1" vertex="1">
          <mxGeometry x="50" y="400" width="90" height="40" as="geometry" />
        </mxCell>
        <mxCell id="L-l4M9XKchPwWJ18eFmD-1" value="Vue.js lib" style="shape=module;align=left;spacingLeft=20;align=center;verticalAlign=top;whiteSpace=wrap;html=1;" vertex="1" parent="1">
          <mxGeometry x="460" y="200" width="110" height="50" as="geometry" />
        </mxCell>
        <mxCell id="L-l4M9XKchPwWJ18eFmD-2" value="axios lib" style="shape=module;align=left;spacingLeft=20;align=center;verticalAlign=top;whiteSpace=wrap;html=1;" vertex="1" parent="1">
          <mxGeometry x="460" y="355" width="110" height="50" as="geometry" />
        </mxCell>
        <mxCell id="L-l4M9XKchPwWJ18eFmD-9" style="edgeStyle=orthogonalEdgeStyle;rounded=0;orthogonalLoop=1;jettySize=auto;html=1;entryX=0.5;entryY=0;entryDx=0;entryDy=0;startArrow=classic;startFill=1;" edge="1" parent="1" source="L-l4M9XKchPwWJ18eFmD-3" target="L-l4M9XKchPwWJ18eFmD-7">
          <mxGeometry relative="1" as="geometry" />
        </mxCell>
        <mxCell id="L-l4M9XKchPwWJ18eFmD-3" value="ska_frontend static server" style="shape=module;align=left;spacingLeft=20;align=center;verticalAlign=top;whiteSpace=wrap;html=1;" vertex="1" parent="1">
          <mxGeometry x="150" y="220" width="110" height="50" as="geometry" />
        </mxCell>
        <mxCell id="L-l4M9XKchPwWJ18eFmD-4" value="vue router lib" style="shape=module;align=left;spacingLeft=20;align=center;verticalAlign=top;whiteSpace=wrap;html=1;" vertex="1" parent="1">
          <mxGeometry x="460" y="280" width="110" height="50" as="geometry" />
        </mxCell>
        <mxCell id="L-l4M9XKchPwWJ18eFmD-5" value="page_account" style="ellipse;whiteSpace=wrap;html=1;" vertex="1" parent="1">
          <mxGeometry x="160" y="400" width="90" height="40" as="geometry" />
        </mxCell>
        <mxCell id="L-l4M9XKchPwWJ18eFmD-6" value="page_assistant" style="ellipse;whiteSpace=wrap;html=1;" vertex="1" parent="1">
          <mxGeometry x="280" y="400" width="90" height="40" as="geometry" />
        </mxCell>
        <mxCell id="L-l4M9XKchPwWJ18eFmD-15" style="edgeStyle=orthogonalEdgeStyle;rounded=0;orthogonalLoop=1;jettySize=auto;html=1;entryX=0.5;entryY=0;entryDx=0;entryDy=0;dashed=1;" edge="1" parent="1" source="L-l4M9XKchPwWJ18eFmD-7" target="wpWViin_Y6ipoAt1LUYJ-2">
          <mxGeometry relative="1" as="geometry">
            <Array as="points">
              <mxPoint x="205" y="370" />
              <mxPoint x="95" y="370" />
            </Array>
          </mxGeometry>
        </mxCell>
        <mxCell id="L-l4M9XKchPwWJ18eFmD-16" style="edgeStyle=orthogonalEdgeStyle;rounded=0;orthogonalLoop=1;jettySize=auto;html=1;entryX=0.5;entryY=0;entryDx=0;entryDy=0;dashed=1;" edge="1" parent="1" source="L-l4M9XKchPwWJ18eFmD-7" target="L-l4M9XKchPwWJ18eFmD-5">
          <mxGeometry relative="1" as="geometry" />
        </mxCell>
        <mxCell id="L-l4M9XKchPwWJ18eFmD-17" style="edgeStyle=orthogonalEdgeStyle;rounded=0;orthogonalLoop=1;jettySize=auto;html=1;entryX=0.5;entryY=0;entryDx=0;entryDy=0;dashed=1;" edge="1" parent="1" source="L-l4M9XKchPwWJ18eFmD-7" target="L-l4M9XKchPwWJ18eFmD-6">
          <mxGeometry relative="1" as="geometry">
            <Array as="points">
              <mxPoint x="205" y="370" />
              <mxPoint x="325" y="370" />
            </Array>
          </mxGeometry>
        </mxCell>
        <mxCell id="L-l4M9XKchPwWJ18eFmD-7" value="ska_frontend client" style="shape=module;align=left;spacingLeft=20;align=center;verticalAlign=top;whiteSpace=wrap;html=1;" vertex="1" parent="1">
          <mxGeometry x="150" y="305" width="110" height="50" as="geometry" />
        </mxCell>
        <mxCell id="L-l4M9XKchPwWJ18eFmD-18" value="oidc-client lib" style="shape=module;align=left;spacingLeft=20;align=center;verticalAlign=top;whiteSpace=wrap;html=1;" vertex="1" parent="1">
          <mxGeometry x="460" y="430" width="110" height="50" as="geometry" />
        </mxCell>
        <mxCell id="L-l4M9XKchPwWJ18eFmD-19" style="edgeStyle=orthogonalEdgeStyle;rounded=0;orthogonalLoop=1;jettySize=auto;html=1;entryX=0;entryY=0;entryDx=0;entryDy=35;entryPerimeter=0;" edge="1" parent="1" source="L-l4M9XKchPwWJ18eFmD-7" target="L-l4M9XKchPwWJ18eFmD-1">
          <mxGeometry relative="1" as="geometry">
            <Array as="points">
              <mxPoint x="400" y="330" />
              <mxPoint x="400" y="235" />
            </Array>
          </mxGeometry>
        </mxCell>
        <mxCell id="L-l4M9XKchPwWJ18eFmD-20" style="edgeStyle=orthogonalEdgeStyle;rounded=0;orthogonalLoop=1;jettySize=auto;html=1;entryX=0;entryY=0;entryDx=0;entryDy=35;entryPerimeter=0;" edge="1" parent="1" source="L-l4M9XKchPwWJ18eFmD-7" target="L-l4M9XKchPwWJ18eFmD-4">
          <mxGeometry relative="1" as="geometry">
            <Array as="points">
              <mxPoint x="400" y="330" />
              <mxPoint x="400" y="315" />
            </Array>
          </mxGeometry>
        </mxCell>
        <mxCell id="L-l4M9XKchPwWJ18eFmD-21" style="edgeStyle=orthogonalEdgeStyle;rounded=0;orthogonalLoop=1;jettySize=auto;html=1;entryX=0;entryY=0;entryDx=0;entryDy=35;entryPerimeter=0;" edge="1" parent="1" source="L-l4M9XKchPwWJ18eFmD-7" target="L-l4M9XKchPwWJ18eFmD-2">
          <mxGeometry relative="1" as="geometry">
            <Array as="points">
              <mxPoint x="400" y="330" />
              <mxPoint x="400" y="390" />
            </Array>
          </mxGeometry>
        </mxCell>
        <mxCell id="L-l4M9XKchPwWJ18eFmD-22" style="edgeStyle=orthogonalEdgeStyle;rounded=0;orthogonalLoop=1;jettySize=auto;html=1;entryX=0;entryY=0;entryDx=0;entryDy=15;entryPerimeter=0;" edge="1" parent="1" source="L-l4M9XKchPwWJ18eFmD-7" target="L-l4M9XKchPwWJ18eFmD-18">
          <mxGeometry relative="1" as="geometry">
            <Array as="points">
              <mxPoint x="400" y="330" />
              <mxPoint x="400" y="445" />
            </Array>
          </mxGeometry>
        </mxCell>
        <mxCell id="L-l4M9XKchPwWJ18eFmD-23" style="edgeStyle=orthogonalEdgeStyle;rounded=0;orthogonalLoop=1;jettySize=auto;html=1;entryX=0;entryY=0;entryDx=0;entryDy=15;entryPerimeter=0;" edge="1" parent="1" source="L-l4M9XKchPwWJ18eFmD-2" target="_1hHCrO5CZwxLzsTIWwX-7">
          <mxGeometry relative="1" as="geometry" />
        </mxCell>
        <mxCell id="L-l4M9XKchPwWJ18eFmD-24" style="edgeStyle=orthogonalEdgeStyle;rounded=0;orthogonalLoop=1;jettySize=auto;html=1;entryX=0;entryY=0;entryDx=0;entryDy=15;entryPerimeter=0;" edge="1" parent="1" source="L-l4M9XKchPwWJ18eFmD-2" target="_1hHCrO5CZwxLzsTIWwX-8">
          <mxGeometry relative="1" as="geometry" />
        </mxCell>
        <mxCell id="L-l4M9XKchPwWJ18eFmD-25" style="edgeStyle=orthogonalEdgeStyle;rounded=0;orthogonalLoop=1;jettySize=auto;html=1;entryX=0;entryY=0;entryDx=0;entryDy=35;entryPerimeter=0;" edge="1" parent="1" source="L-l4M9XKchPwWJ18eFmD-18" target="_1hHCrO5CZwxLzsTIWwX-8">
          <mxGeometry relative="1" as="geometry" />
        </mxCell>
      </root>
    </mxGraphModel>
  </diagram>
</mxfile>
